<svg width="40" height="40" viewBox="0 0 40 40" fill="none" xmlns="http://www.w3.org/2000/svg">
<path d="M36.6667 36.6667H3.33337" stroke="#691DB3" stroke-width="1.5" stroke-linecap="round"/>
<path d="M3.33337 18.3333L16.8765 7.49885C18.7027 6.03798 21.2974 6.03798 23.1235 7.49885L36.6667 18.3333" stroke="#691DB3" stroke-width="1.5" stroke-linecap="round"/>
<path d="M25.8334 9.16667V5.83333C25.8334 5.3731 26.2065 5 26.6667 5H30.8334C31.2935 5 31.6667 5.3731 31.6667 5.83333V14.1667" stroke="#691DB3" stroke-width="1.5" stroke-linecap="round"/>
<path d="M6.66663 36.6666V15.8333" stroke="#691DB3" stroke-width="1.5" stroke-linecap="round"/>
<path d="M33.3334 36.6666V15.8333" stroke="#691DB3" stroke-width="1.5" stroke-linecap="round"/>
<path d="M25 36.6666V28.3333C25 25.9763 25 24.7978 24.2678 24.0655C23.5355 23.3333 22.357 23.3333 20 23.3333C17.643 23.3333 16.4645 23.3333 15.7322 24.0655C15 24.7978 15 25.9763 15 28.3333V36.6666" stroke="#691DB3" stroke-width="1.5"/>
<path d="M23.3333 15.8333C23.3333 17.6743 21.841 19.1667 20 19.1667C18.159 19.1667 16.6666 17.6743 16.6666 15.8333C16.6666 13.9924 18.159 12.5 20 12.5C21.841 12.5 23.3333 13.9924 23.3333 15.8333Z" stroke="#691DB3" stroke-width="1.5"/>
</svg>
