<svg width="24" height="24" viewBox="0 0 24 24" fill="none" xmlns="http://www.w3.org/2000/svg">
<path d="M12 21C11.7167 21 11.479 20.904 11.287 20.712C11.095 20.52 10.9993 20.2827 11 20C11 19.7167 11.096 19.479 11.288 19.287C11.48 19.095 11.7173 18.9993 12 19H19V11.9C19 9.95 18.3207 8.29567 16.962 6.937C15.6033 5.57833 13.9493 4.89933 12 4.9C10.05 4.9 8.39567 5.57933 7.037 6.938C5.67834 8.29667 4.99934 9.95067 5 11.9V17C5 17.2833 4.904 17.521 4.712 17.713C4.52 17.905 4.28267 18.0007 4 18C3.45 18 2.979 17.804 2.587 17.412C2.195 17.02 1.99934 16.5493 2 16V14C2 13.65 2.08767 13.3207 2.263 13.012C2.43834 12.7033 2.684 12.4577 3 12.275L3.075 10.95C3.20834 9.81667 3.53767 8.76667 4.063 7.8C4.58834 6.83333 5.24667 5.99167 6.038 5.275C6.82867 4.55833 7.73633 4 8.761 3.6C9.78567 3.2 10.8653 3 12 3C13.1333 3 14.2083 3.2 15.225 3.6C16.2417 4 17.15 4.55433 17.95 5.263C18.75 5.971 19.4083 6.80833 19.925 7.775C20.4417 8.74167 20.775 9.79167 20.925 10.925L21 12.225C21.3167 12.375 21.5627 12.6 21.738 12.9C21.9133 13.2 22.0007 13.5167 22 13.85V16.15C22 16.4833 21.9123 16.8 21.737 17.1C21.5617 17.4 21.316 17.625 21 17.775V19C21 19.55 20.804 20.021 20.412 20.413C20.02 20.805 19.5493 21.0007 19 21H12ZM9 14C8.71667 14 8.479 13.904 8.287 13.712C8.095 13.52 7.99934 13.2827 8 13C8 12.7167 8.096 12.479 8.288 12.287C8.48 12.095 8.71734 11.9993 9 12C9.28334 12 9.521 12.096 9.713 12.288C9.905 12.48 10.0007 12.7173 10 13C10 13.2833 9.904 13.521 9.712 13.713C9.52 13.905 9.28267 14.0007 9 14ZM15 14C14.7167 14 14.479 13.904 14.287 13.712C14.095 13.52 13.9993 13.2827 14 13C14 12.7167 14.096 12.479 14.288 12.287C14.48 12.095 14.7173 11.9993 15 12C15.2833 12 15.521 12.096 15.713 12.288C15.905 12.48 16.0007 12.7173 16 13C16 13.2833 15.904 13.521 15.712 13.713C15.52 13.905 15.2827 14.0007 15 14ZM6.025 12.45C5.90834 10.6833 6.44167 9.16667 7.625 7.9C8.80834 6.63333 10.2833 6 12.05 6C13.5333 6 14.8377 6.47067 15.963 7.412C17.0883 8.35333 17.7673 9.55767 18 11.025C16.4833 11.0083 15.0873 10.6 13.812 9.8C12.5367 9 11.5577 7.91667 10.875 6.55C10.6083 7.88333 10.0457 9.071 9.187 10.113C8.32834 11.155 7.27367 11.934 6.025 12.45Z" fill="white"/>
</svg>
