<svg width="20" height="15" viewBox="0 0 20 15" fill="none" xmlns="http://www.w3.org/2000/svg">
<g filter="url(#filter0_d_1_18798)">
<mask id="mask0_1_18798" style="mask-type:luminance" maskUnits="userSpaceOnUse" x="0" y="0" width="20" height="15">
<path fill-rule="evenodd" clip-rule="evenodd" d="M0 0H20V14.1253H0V0Z" fill="white"/>
</mask>
<g mask="url(#mask0_1_18798)">
<path fill-rule="evenodd" clip-rule="evenodd" d="M4.99998 0H20V14.1253H4.99998V0Z" fill="#2F8D00"/>
<path fill-rule="evenodd" clip-rule="evenodd" d="M0 0H5V14.1253H0V0Z" fill="#F7FCFF"/>
<path fill-rule="evenodd" clip-rule="evenodd" d="M14.0182 9.00848C14.0182 9.00848 11.2271 9.69373 9.01172 8.29592C6.79628 6.89817 7.90997 3.67709 7.90997 3.67709C6.75435 3.83544 4.93957 7.80571 7.86485 9.79708C10.7901 11.7884 13.5925 9.87424 14.0182 9.00848ZM10.921 5.21835L9.43878 5.90086L11.0024 6.16312L11.2135 7.60243L12.0992 6.37659L13.842 6.48724L12.4769 5.52856L13.2036 4.24765L11.8446 4.83377L10.8351 3.93995L10.921 5.21835Z" fill="#F1F9FF"/>
</g>
</g>
<defs>
<filter id="filter0_d_1_18798" x="-4.01061" y="0" width="28.0212" height="22.1465" filterUnits="userSpaceOnUse" color-interpolation-filters="sRGB">
<feFlood flood-opacity="0" result="BackgroundImageFix"/>
<feColorMatrix in="SourceAlpha" type="matrix" values="0 0 0 0 0 0 0 0 0 0 0 0 0 0 0 0 0 0 127 0" result="hardAlpha"/>
<feOffset dy="4"/>
<feGaussianBlur stdDeviation="2"/>
<feComposite in2="hardAlpha" operator="out"/>
<feColorMatrix type="matrix" values="0 0 0 0 0 0 0 0 0 0 0 0 0 0 0 0 0 0 0.25 0"/>
<feBlend mode="normal" in2="BackgroundImageFix" result="effect1_dropShadow_1_18798"/>
<feBlend mode="normal" in="SourceGraphic" in2="effect1_dropShadow_1_18798" result="shape"/>
</filter>
</defs>
</svg>
