<svg width="22" height="22" viewBox="0 0 22 22" fill="none" xmlns="http://www.w3.org/2000/svg">
<path d="M10.9522 22C8.14774 22 5.70314 21.0882 3.6184 19.2645C1.53365 17.4409 0.327521 15.1444 0 12.375H1.39689C1.77224 14.7407 2.85445 16.7071 4.64353 18.2743C6.4326 19.8414 8.5355 20.625 10.9522 20.625C13.6451 20.625 15.9295 19.6911 17.8053 17.8234C19.6811 15.9557 20.619 13.6813 20.619 11C20.619 8.31875 19.6811 6.04427 17.8053 4.17656C15.9295 2.30885 13.6451 1.375 10.9522 1.375C9.52342 1.375 8.1805 1.67556 6.92345 2.27669C5.66642 2.87782 4.55722 3.70546 3.59585 4.75963H7.0217V6.13463H1.28534V0.423087H2.66632V3.70721C3.73393 2.54022 4.98522 1.6306 6.42019 0.978347C7.85516 0.326116 9.36583 0 10.9522 0C12.4837 0 13.9191 0.286895 15.2584 0.860682C16.5978 1.43449 17.7681 2.21984 18.7693 3.21671C19.7705 4.21359 20.5593 5.3788 21.1355 6.71237C21.7118 8.04594 22 9.47515 22 11C22 12.5249 21.7118 13.9541 21.1355 15.2876C20.5593 16.6212 19.7705 17.7864 18.7693 18.7833C17.7681 19.7802 16.5978 20.5655 15.2584 21.1393C13.9191 21.7131 12.4837 22 10.9522 22ZM15.3766 16.299L10.3414 11.2856V4.125H11.7223V10.7144L16.3539 15.326L15.3766 16.299Z" fill="white"/>
</svg>
