<svg width="20" height="20" viewBox="0 0 20 20" fill="none" xmlns="http://www.w3.org/2000/svg">
<path d="M2.5 8.33333C2.5 5.19063 2.5 3.61929 3.47631 2.64297C4.45262 1.66666 6.02397 1.66666 9.16667 1.66666H10.8333C13.976 1.66666 15.5474 1.66666 16.5237 2.64297C17.5 3.61929 17.5 5.19063 17.5 8.33333V11.6667C17.5 14.8093 17.5 16.3807 16.5237 17.357C15.5474 18.3333 13.976 18.3333 10.8333 18.3333H9.16667C6.02397 18.3333 4.45262 18.3333 3.47631 17.357C2.5 16.3807 2.5 14.8093 2.5 11.6667V8.33333Z" stroke="#691DB3" stroke-width="1.5"/>
<path d="M10 5V6.66667M10 6.66667V8.33333M10 6.66667H8.33331M10 6.66667H11.6667" stroke="#691DB3" stroke-width="1.5" stroke-linecap="round"/>
<path d="M6.66669 11.6667H13.3334" stroke="#691DB3" stroke-width="1.5" stroke-linecap="round"/>
<path d="M7.5 15H12.5" stroke="#691DB3" stroke-width="1.5" stroke-linecap="round"/>
</svg>
