<svg width="30" height="30" viewBox="0 0 30 30" fill="none" xmlns="http://www.w3.org/2000/svg">
<path d="M27.5 16.25V15C27.5 10.286 27.5 7.92894 26.0355 6.46446C24.5711 5 22.214 5 17.5 5H12.5C7.78595 5 5.42894 5 3.96446 6.46446C2.5 7.92894 2.5 10.286 2.5 15C2.5 19.714 2.5 22.0711 3.96446 23.5355C5.42894 25 7.78595 25 12.5 25H16.25" stroke="white" stroke-width="1.5" stroke-linecap="round"/>
<path d="M12.5 20H7.5" stroke="white" stroke-width="1.5" stroke-linecap="round"/>
<path d="M2.5 12.5H27.5" stroke="white" stroke-width="1.5" stroke-linecap="round"/>
<path d="M22.5 25C24.5711 25 26.25 23.3211 26.25 21.25C26.25 19.1789 24.5711 17.5 22.5 17.5C20.4289 17.5 18.75 19.1789 18.75 21.25C18.75 23.3211 20.4289 25 22.5 25Z" stroke="white" stroke-width="1.5"/>
<path d="M25.625 24.375L26.875 25.625" stroke="white" stroke-width="1.5" stroke-linecap="round"/>
</svg>
