<svg width="30" height="30" viewBox="0 0 30 30" fill="none" xmlns="http://www.w3.org/2000/svg">
<path d="M17.9501 5.09833L19.1086 3.93973C21.0282 2.02009 24.1406 2.02009 26.0602 3.93973C27.9799 5.85935 27.9799 8.97169 26.0602 10.8913L24.9016 12.0499M17.9501 5.09833C17.9501 5.09833 18.0949 7.56035 20.2672 9.73273C22.4396 11.9051 24.9016 12.0499 24.9016 12.0499M17.9501 5.09833L7.29852 15.7499C6.57707 16.4714 6.21635 16.832 5.90612 17.2298C5.54016 17.699 5.22642 18.2066 4.97042 18.7438C4.75341 19.1991 4.5921 19.6831 4.26945 20.651L2.90226 24.7526M24.9016 12.0499L14.2501 22.7015C13.5286 23.4229 13.168 23.7836 12.7702 24.0939C12.301 24.4599 11.7934 24.7736 11.2562 25.0296C10.8009 25.2466 10.3169 25.4079 9.34897 25.7305L5.2474 27.0978M2.90226 24.7526L2.56806 25.7553C2.40929 26.2315 2.53325 26.7566 2.88829 27.1118C3.24332 27.4668 3.76847 27.5908 4.2448 27.432L5.2474 27.0978M2.90226 24.7526L5.2474 27.0978" stroke="white"/>
</svg>
